<svg width="108" height="108" fill="none" xmlns="http://www.w3.org/2000/svg"><rect width="108" height="108" rx="54" fill="#C7EEFF"/><path d="M38.865 64.125V54c0-4.028 1.675-7.891 4.657-10.74 2.982-2.847 7.026-4.447 11.243-4.447 4.216 0 8.26 1.6 11.242 4.448 2.982 2.848 4.657 6.711 4.657 10.739v10.125" stroke="#000" stroke-width="3" stroke-linecap="round" stroke-linejoin="round"/><path d="M70.664 65.813a3.3 3.3 0 01-1.035 2.386 3.62 3.62 0 01-2.498.989h-1.767a3.62 3.62 0 01-2.498-.989 3.3 3.3 0 01-1.035-2.386V60.75a3.3 3.3 0 011.035-2.386 3.62 3.62 0 012.498-.989h5.3v8.438zm-31.799 0a3.3 3.3 0 001.035 2.386 3.62 3.62 0 002.498.989h1.767a3.62 3.62 0 002.498-.989 3.3 3.3 0 001.035-2.386V60.75a3.3 3.3 0 00-1.035-2.386 3.62 3.62 0 00-2.498-.989h-5.3v8.438z" stroke="#000" stroke-width="3" stroke-linecap="round" stroke-linejoin="round"/></svg>