<svg width="150" height="29" fill="none" xmlns="http://www.w3.org/2000/svg"><path d="M2.737 18.455l5.287 5.287.01.01.011.01a9.347 9.347 0 0011.896 1.1 9.347 9.347 0 0011.896-1.1l5.287-5.286A9.346 9.346 0 0025.228 4.159a9.35 9.35 0 00-10.57-.003 9.346 9.346 0 00-11.92 14.299zM28.1 6.807a5.607 5.607 0 016.381 9.024l-5.286 5.287a5.617 5.617 0 01-6.384 1.097l3.74-3.74a9.276 9.276 0 002.643-5.286c.062-.438.094-.88.094-1.322a9.283 9.283 0 00-1.415-4.946c.075-.04.15-.078.227-.114zM15.976 7.901a5.608 5.608 0 017.93 7.93l-3.965 3.966-3.965-3.965a5.614 5.614 0 010-7.93zM5.38 7.881a5.616 5.616 0 016.633-.967 9.283 9.283 0 00-1.42 4.953c.001.442.032.884.094 1.322a9.275 9.275 0 002.644 5.287l3.717 3.716.021.021a5.617 5.617 0 01-6.381-1.094l-.011-.011-.01-.01-5.262-5.262-.026-.025a5.608 5.608 0 010-7.93z" fill="#fff"/><path d="M52.84 23h3.458l3.117-11.332h.07L62.591 23h3.457l4.488-16.91h-3.668l-2.684 12.117h-.07L60.997 6.09h-3.105l-3.118 12.117h-.07L52.032 6.09h-3.668L52.841 23zm21.458.2c1.652 0 2.988-.786 3.703-2.075h.07V23h3.422v-8.613c0-2.532-2.098-4.207-5.344-4.207-3.316 0-5.308 1.664-5.496 3.984l-.012.14h3.13l.023-.105c.164-.808.937-1.406 2.215-1.406 1.336 0 2.062.691 2.062 1.805v.773l-3.105.188c-3.117.199-4.887 1.535-4.887 3.82v.023c0 2.215 1.7 3.797 4.219 3.797zm-.832-3.973v-.024c0-.89.691-1.453 2.015-1.535l2.59-.164v.902c0 1.313-1.125 2.297-2.66 2.297-1.184 0-1.945-.55-1.945-1.476zM83.826 23h3.42v-4.16l.88-.973L91.723 23h3.95l-4.98-7.16 4.745-5.402H91.56l-4.242 5.027h-.07V6.09h-3.422V23zm16.464.2c1.652 0 2.988-.786 3.703-2.075h.07V23h3.422v-8.613c0-2.532-2.097-4.207-5.344-4.207-3.316 0-5.308 1.664-5.496 3.984l-.011.14h3.129l.023-.105c.164-.808.938-1.406 2.215-1.406 1.336 0 2.062.691 2.062 1.805v.773l-3.105.188c-3.117.199-4.887 1.535-4.887 3.82v.023c0 2.215 1.7 3.797 4.219 3.797zm-.832-3.973v-.024c0-.89.691-1.453 2.016-1.535l2.589-.164v.902c0 1.313-1.125 2.297-2.66 2.297-1.183 0-1.945-.55-1.945-1.476zM109.7 23h3.422v-7.219c0-1.64.973-2.765 2.508-2.765 1.535 0 2.308.937 2.308 2.578V23h3.422v-8.11c0-2.94-1.57-4.71-4.336-4.71-1.898 0-3.187.879-3.832 2.32h-.07v-2.063H109.7V23zm18.481.258c1.816 0 3.199-.914 3.867-2.402h.07V23h3.422V6.09h-3.422v6.527h-.07c-.68-1.523-2.086-2.437-3.867-2.437-3.165 0-5.11 2.437-5.11 6.527v.012c0 4.078 1.945 6.539 5.11 6.539zm1.148-2.836c-1.711 0-2.777-1.418-2.777-3.703v-.012c0-2.297 1.078-3.691 2.777-3.691 1.652 0 2.801 1.43 2.801 3.691v.012c0 2.273-1.137 3.703-2.801 3.703zm12.234 2.777c1.653 0 2.989-.785 3.703-2.074h.071V23h3.422v-8.613c0-2.532-2.098-4.207-5.344-4.207-3.316 0-5.309 1.664-5.496 3.984l-.012.14h3.129l.023-.105c.165-.808.938-1.406 2.215-1.406 1.336 0 2.063.691 2.063 1.805v.773l-3.106.188c-3.117.199-4.886 1.535-4.886 3.82v.023c0 2.215 1.699 3.797 4.218 3.797zm-.832-3.972v-.024c0-.89.692-1.453 2.016-1.535l2.59-.164v.902c0 1.313-1.125 2.297-2.66 2.297-1.184 0-1.946-.55-1.946-1.476z" fill="#F7F8F8"/></svg>