<svg width="451" height="564" fill="none" xmlns="http://www.w3.org/2000/svg"><g clip-path="url(#clip0_30_192)"><path d="M435.967 0H15.033C6.731 0 0 6.734 0 15.04v533.92C0 557.266 6.73 564 15.033 564h420.934c8.302 0 15.033-6.734 15.033-15.04V15.04C451 6.734 444.269 0 435.967 0z" fill="#B8C5D0"/><path fill-rule="evenodd" clip-rule="evenodd" d="M30.067 60.16h390.866c8.302 0 15.034 6.734 15.034 15.04v458.72c0 8.306-6.732 15.04-15.034 15.04H30.067c-8.303 0-15.034-6.734-15.034-15.04V75.2c0-8.306 6.731-15.04 15.034-15.04zm-7.517-37.6a7.518 7.518 0 017.517 7.52 7.518 7.518 0 01-7.517 7.52 7.518 7.518 0 01-7.517-7.52 7.518 7.518 0 017.517-7.52zm22.55 0a7.518 7.518 0 017.517 7.52A7.518 7.518 0 0145.1 37.6a7.518 7.518 0 01-7.517-7.52 7.518 7.518 0 017.517-7.52zm22.55 0a7.518 7.518 0 017.517 7.52 7.518 7.518 0 01-7.517 7.52 7.518 7.518 0 01-7.517-7.52 7.518 7.518 0 017.517-7.52z" fill="#fff"/><path d="M139.058 105.28H37.583c-8.302 0-15.033 6.734-15.033 15.04v97.76c0 8.306 6.73 15.04 15.033 15.04h101.475c8.303 0 15.034-6.734 15.034-15.04v-97.76c0-8.306-6.731-15.04-15.034-15.04z" fill="#B8C5D0"/><path fill-rule="evenodd" clip-rule="evenodd" d="M90.2 209.77c16.604 0 30.067 7.596 30.067 16.958 0 9.362-13.463 5.64-30.067 5.64s-30.067 3.722-30.067-5.64S73.596 209.77 90.2 209.77zm0-55.61c13.74.184 24.747 11.445 24.624 25.191-.123 13.747-11.33 24.809-25.07 24.747-13.742-.062-24.848-11.224-24.848-24.972a25.137 25.137 0 017.478-17.725A25.116 25.116 0 0190.2 154.16z" fill="#1D242B"/><path d="M293.15 112.8H180.4a3.758 3.758 0 00-3.758 3.76v3.76a3.758 3.758 0 003.758 3.76h112.75a3.758 3.758 0 003.758-3.76v-3.76a3.758 3.758 0 00-3.758-3.76z" fill="#1D242B"/><path d="M330.733 146.64H180.4a3.758 3.758 0 00-3.758 3.76v3.76a3.758 3.758 0 003.758 3.76h150.333a3.76 3.76 0 003.759-3.76v-3.76a3.76 3.76 0 00-3.759-3.76zM405.9 169.2H180.4a3.758 3.758 0 00-3.758 3.76v3.76a3.758 3.758 0 003.758 3.76h225.5a3.758 3.758 0 003.758-3.76v-3.76a3.758 3.758 0 00-3.758-3.76zm3.758 22.56H180.4a3.758 3.758 0 00-3.758 3.76v3.76a3.758 3.758 0 003.758 3.76h229.258a3.76 3.76 0 003.759-3.76v-3.76a3.76 3.76 0 00-3.759-3.76zm-63.891 22.56H180.4a3.758 3.758 0 00-3.758 3.76v3.76a3.758 3.758 0 003.758 3.76h165.367a3.759 3.759 0 003.758-3.76v-3.76a3.759 3.759 0 00-3.758-3.76zm-206.709 26.32H37.583c-8.302 0-15.033 6.734-15.033 15.04v97.76c0 8.306 6.73 15.04 15.033 15.04h101.475c8.303 0 15.034-6.734 15.034-15.04v-97.76c0-8.306-6.731-15.04-15.034-15.04z" fill="#B8C5D0"/><path fill-rule="evenodd" clip-rule="evenodd" d="M90.2 345.13c16.604 0 30.067 7.596 30.067 16.958 0 9.362-13.463 5.64-30.067 5.64s-30.067 3.722-30.067-5.64S73.596 345.13 90.2 345.13zm0-55.61c13.74.184 24.747 11.445 24.624 25.191-.123 13.747-11.33 24.809-25.07 24.747-13.742-.062-24.848-11.224-24.848-24.972a25.137 25.137 0 017.478-17.725A25.116 25.116 0 0190.2 289.52z" fill="#1D242B"/><path d="M330.733 248.16H180.4a3.758 3.758 0 00-3.758 3.76v3.76a3.758 3.758 0 003.758 3.76h150.333a3.76 3.76 0 003.759-3.76v-3.76a3.76 3.76 0 00-3.759-3.76z" fill="#1D242B"/><path d="M409.658 282H180.4a3.758 3.758 0 00-3.758 3.76v3.76a3.758 3.758 0 003.758 3.76h229.258a3.76 3.76 0 003.759-3.76v-3.76a3.76 3.76 0 00-3.759-3.76zm-11.275 22.56H180.4a3.758 3.758 0 00-3.758 3.76v3.76a3.758 3.758 0 003.758 3.76h217.983a3.76 3.76 0 003.759-3.76v-3.76a3.76 3.76 0 00-3.759-3.76zm-7.516 22.56H180.4a3.758 3.758 0 00-3.758 3.76v3.76a3.758 3.758 0 003.758 3.76h210.467a3.759 3.759 0 003.758-3.76v-3.76a3.759 3.759 0 00-3.758-3.76zm-45.1 22.56H180.4a3.758 3.758 0 00-3.758 3.76v3.76a3.758 3.758 0 003.758 3.76h165.367a3.759 3.759 0 003.758-3.76v-3.76a3.759 3.759 0 00-3.758-3.76zM139.058 376H37.583c-8.302 0-15.033 6.734-15.033 15.04v97.76c0 8.306 6.73 15.04 15.033 15.04h101.475c8.303 0 15.034-6.734 15.034-15.04v-97.76c0-8.306-6.731-15.04-15.034-15.04z" fill="#B8C5D0"/><path fill-rule="evenodd" clip-rule="evenodd" d="M90.2 480.49c16.604 0 30.067 7.596 30.067 16.958 0 9.362-13.463 5.64-30.067 5.64s-30.067 3.722-30.067-5.64S73.596 480.49 90.2 480.49zm0-55.61c13.74.184 24.747 11.445 24.624 25.192-.123 13.747-11.33 24.808-25.07 24.745-13.742-.061-24.848-11.224-24.848-24.971A25.125 25.125 0 0190.2 424.88z" fill="#1D242B"/><path d="M368.317 383.52H180.4a3.758 3.758 0 00-3.758 3.76v3.76a3.758 3.758 0 003.758 3.76h187.917a3.759 3.759 0 003.758-3.76v-3.76a3.759 3.759 0 00-3.758-3.76z" fill="#1D242B"/><path d="M293.15 417.36H180.4a3.758 3.758 0 00-3.758 3.76v3.76a3.758 3.758 0 003.758 3.76h112.75a3.758 3.758 0 003.758-3.76v-3.76a3.758 3.758 0 00-3.758-3.76zm86.442 22.56H180.4a3.758 3.758 0 00-3.758 3.76v3.76a3.758 3.758 0 003.758 3.76h199.192a3.759 3.759 0 003.758-3.76v-3.76a3.759 3.759 0 00-3.758-3.76zm15.033 22.56H180.4a3.758 3.758 0 00-3.758 3.76V470a3.758 3.758 0 003.758 3.76h214.225a3.758 3.758 0 003.758-3.76v-3.76a3.758 3.758 0 00-3.758-3.76zm-67.65 22.56H180.4a3.758 3.758 0 00-3.758 3.76v3.76a3.758 3.758 0 003.758 3.76h146.575a3.758 3.758 0 003.758-3.76v-3.76a3.758 3.758 0 00-3.758-3.76z" fill="#B8C5D0"/></g><defs><clipPath id="clip0_30_192"><path fill="#fff" d="M0 0h451v564H0z"/></clipPath></defs></svg>